<svg xmlns="http://www.w3.org/2000/svg" width="279.644" height="85"><g data-name="Group 48" transform="translate(-161 -54)"><circle data-name="Ellipse 14" cx="42.5" cy="42.5" r="42.5" transform="translate(161 54)" fill="#24335d"/><g data-name="Group 41"><path data-name="Path 14" d="M208.193 87.702c.5-1.339-6.572-3.789-6.434-7.371.172-4.464 9.744-7.877 17.763-.913l2.672-7.395c-4.864-4.184-10.724-6.6-17.331-6.093-10.56.8-16.937 8.529-12.658 16.034 1.429 2.5 4.7 4.236 8.423 4.855 3.459.575 6.124.523 7.565.883z" fill="#1ec3bc"/></g><path data-name="Path 15" d="M219.584 98.166c-7.5-2.624-13.841 1.936-18.262 3.44-6 2.043-9.572 2.789-14.034 1.09a17.384 17.384 0 01-3.689-2.1 13.411 13.411 0 01-3.237-3.977 15.884 15.884 0 01-1.685-3.884l-.838-3.673 1.922 3.076a19.039 19.039 0 004.8 5.269 13.676 13.676 0 006.532 2.466 19.294 19.294 0 005.679-.366 35.313 35.313 0 01-5.161-.835 15.707 15.707 0 01-6.062-2.964 12.21 12.21 0 01-2.663-3.058 13.489 13.489 0 01-1.407-3.079 12.33 12.33 0 01-.559-3.54 12.339 12.339 0 01.557-3.92 12.882 12.882 0 011.919-3.766 16.159 16.159 0 00.92 9.916 11.023 11.023 0 005.042 4.947 18.788 18.788 0 005.852 1.639 21.615 21.615 0 004.3.145 33.287 33.287 0 01-8.859-3.546 9.7 9.7 0 01-3.841-4.8 7.849 7.849 0 01-.3-4.691 12.427 12.427 0 011.513-3.863l1.264-1.949a20.982 20.982 0 00.7 7.108 10.24 10.24 0 003.963 4.569 12.559 12.559 0 005.6 1.894c2.2.207 10.042.6 12.873 1.3 4.112.964 7.63 3.163 8.865 5.02 1.074 1.614 1.662 3.622 1.225 3.665-.871.087-1.165-.916-2.929-1.533z" fill="#1ec3bc"/><path data-name="Path 16" d="M213.934 100.365c-5.455-.035-6.9 1.245-8.362 2.132 11.405.037 10.542 19.845-13.916 9.552l-2.428 8.467c7.095 3.466 15.749 5.222 23.461 3.238 10.411-2.68 13.506-11.952 9.807-19.213-.831-1.628-3.106-4.141-8.562-4.176z" fill="#1ec3bc"/><text data-name="Le Studio" transform="translate(256.644 98.668)" font-size="39" font-family="Metropolis-Bold, Metropolis" font-weight="700"><tspan x="0" y="0">Le Studio</tspan></text><text transform="translate(256.644 124.534)" font-size="27" font-family="Metropolis-SemiBold, Metropolis" font-weight="600"><tspan x="0" y="0">DataScientest</tspan></text></g></svg>